<?xml version="1.0" encoding="UTF-8" standalone="no"?> <svg id="Layer_1" data-name="Layer 1" xmlns="http://www.w3.org/2000/svg" viewBox="0 0 128 128"><defs><style>.cls-1{fill:#1d75b8;}.cls-2{fill:#2d3e50;}</style></defs><title>a</title><path class="cls-1" d="M98.90038,33.88732A45.11542,45.11542,0,0,1,106.577,47.91152l-5.85227,1.04107,12.4373,10.63314,3.63872-6.77711.17687-.33353,3.8055-7.09044-5.6956,1.01075a52.9369,52.9369,0,0,0-10.69881-17.27882A52.27161,52.27161,0,0,0,82.17243,14.89025l-1.88,5.23063A45.8707,45.8707,0,0,1,98.90038,33.88732Z"/><path class="cls-1" d="M28.73061,93.60045a45.11562,45.11562,0,0,1-7.23579-14.25668l5.88188-.85816L15.27691,67.47l-3.84822,6.66039-.18717.32786L7.21683,81.42657l5.72435-.83271a52.93716,52.93716,0,0,0,10.155,17.60393,52.27161,52.27161,0,0,0,21.76206,14.912l2.04214-5.1695A45.87036,45.87036,0,0,1,28.73061,93.60045Z"/><rect class="cls-2" x="1.88802" y="8.74987" width="59.73489" height="44.199" rx="22.09948" ry="22.09948"/><path class="cls-2" d="M104.00473,75.04533H88.47016a22.1024,22.1024,0,0,0,0,44.2048h15.53457a22.1024,22.1024,0,1,0,0-44.2048Zm0,38.35374H88.47016a16.25134,16.25134,0,0,1,0-32.50268h15.53457a16.25134,16.25134,0,1,1,0,32.50268Z"/></svg>