<svg xmlns="http://www.w3.org/2000/svg"  xml:space="preserve" width="1.70666in" height="1.70666in" version="1.1" style="shape-rendering:geometricPrecision; text-rendering:geometricPrecision; image-rendering:optimizeQuality; fill-rule:evenodd; clip-rule:evenodd" viewBox="0 0 1707 1707" xmlns:xlink="http://www.w3.org/1999/xlink">
 <defs>
  <style type="text/css">
   
    .fil0 {fill:#000002}
   
  </style>
 </defs>
 <g id="Layer_x0020_1">
  <metadata id="CorelCorpID_0Corel-Layer"></metadata>
  <g>
   <path class="fil0" d="M936 1085c-6,0 -12,-3 -16,-7l-109 -109c-21,-21 11,-53 32,-32l93 93 236 -236c21,-21 53,11 32,32l-252 252c-4,4 -10,7 -16,7zm72 231c-5,0 -10,-1 -15,-1l0 87c0,12 -10,22 -22,22l-948 0c-13,0 -23,-10 -23,-22l0 -1308c0,-12 10,-22 23,-22l948 0c12,0 22,10 22,22l0 462c107,-4 208,36 283,111 143,143 148,372 16,521l123 123c19,-20 42,-53 63,-32l222 222c9,9 9,23 0,32l-95 95c-9,9 -23,9 -32,0l-222 -222c-21,-21 12,-43 31,-63l-122 -123c-70,62 -159,96 -252,96zm-60 -5c-77,-12 -149,-48 -206,-104 -31,-30 -45,-51 -68,-88 -30,-51 -46,-127 -46,-183 0,-188 137,-347 320,-375l0 -444 -903 0 0 1262 903 0 0 -68zm60 -710c-296,0 -448,360 -237,571 130,130 340,131 473,0 130,-130 130,-342 0,-473 -63,-63 -147,-98 -236,-98zm-336 514c-1,-3 -3,-6 -4,-9l4 9zm727 275l32 32 62 -63 -31 -31 -63 62zm64 64l126 126 63 -63 -126 -126 -63 63zm-768 -1163l-396 0c-30,0 -30,-46 0,-46l396 0c30,0 30,46 0,46zm146 140l-689 0c-30,0 -30,-45 0,-45l689 0c30,0 30,45 0,45zm0 141l-689 0c-30,0 -30,-45 0,-45l689 0c30,0 30,45 0,45zm-289 141l-400 0c-30,0 -30,-46 0,-46l400 0c30,0 30,46 0,46zm0 140l-400 0c-30,0 -30,-45 0,-45l400 0c30,0 30,45 0,45zm0 141l-400 0c-30,0 -30,-45 0,-45l400 0c30,0 30,45 0,45zm-75 282l-325 0c-13,0 -23,-10 -23,-23l0 -141c0,-12 10,-22 23,-22l325 0c12,0 22,10 22,22l0 141c0,13 -10,23 -22,23zm-302 -46l279 0 0 -95 -279 0 0 95z" id="id_115" style="fill: rgb(13, 112, 183);"></path>
  </g>
 </g>
</svg>