<svg id="Layer_1" data-name="Layer 1" xmlns="http://www.w3.org/2000/svg" viewBox="0 0 64 64"><path d="M32,32.84619A5.84619,5.84619,0,1,0,26.15381,27,5.85277,5.85277,0,0,0,32,32.84619Zm0-9.69238A3.84619,3.84619,0,1,1,28.15381,27,3.85079,3.85079,0,0,1,32,23.15381Z" id="id_101" style="fill: rgb(13, 112, 183);"></path><path d="M23.7002,21.42139a1,1,0,0,0,.12255,1.26562l.33692.3374a8.78648,8.78648,0,0,0-.5166,1.24317h-.47266a.9996.9996,0,0,0-.98145.80859,9.88788,9.88788,0,0,0,0,3.84766.9996.9996,0,0,0,.98145.80859h.47314a8.75178,8.75178,0,0,0,.51612,1.24317l-.33692.3374a1,1,0,0,0-.12255,1.26562,10.00868,10.00868,0,0,0,2.72119,2.72119,1,1,0,0,0,1.26562-.12255l.3374-.33692a8.77557,8.77557,0,0,0,1.24317.51612v.47314a.9996.9996,0,0,0,.80859.98145,9.88788,9.88788,0,0,0,3.84766,0,.9996.9996,0,0,0,.80859-.98145v-.47314a8.75178,8.75178,0,0,0,1.24317-.51612l.3374.33692a1,1,0,0,0,1.26562.12255,10.00868,10.00868,0,0,0,2.72119-2.72119,1,1,0,0,0-.12255-1.26562l-.33692-.3374a8.75178,8.75178,0,0,0,.51612-1.24317h.47314a.9996.9996,0,0,0,.98145-.80859,9.88788,9.88788,0,0,0,0-3.84766.9996.9996,0,0,0-.98145-.80859h-.47266a8.81047,8.81047,0,0,0-.5166-1.24317l.33692-.3374a1,1,0,0,0,.12255-1.26562,10.00868,10.00868,0,0,0-2.72119-2.72119,1.00126,1.00126,0,0,0-1.26562.12255l-.3374.33692a8.77557,8.77557,0,0,0-1.24317-.51612v-.47314a.9996.9996,0,0,0-.80859-.98145,9.92563,9.92563,0,0,0-3.84766,0,.9996.9996,0,0,0-.80859.98145v.47314a8.75178,8.75178,0,0,0-1.24317.51612l-.3374-.33692a1.00126,1.00126,0,0,0-1.26562-.12255A10.00868,10.00868,0,0,0,23.7002,21.42139Zm1.82568,3.52343a6.771,6.771,0,0,1,.44287-1.06543,1.8752,1.8752,0,0,0-.13379-1.978A8.03232,8.03232,0,0,1,26.90137,20.835a1.87717,1.87717,0,0,0,1.97851.13379,6.73645,6.73645,0,0,1,1.06494-.44238,1.87518,1.87518,0,0,0,1.30079-1.48926,7.63568,7.63568,0,0,1,1.50878,0,1.87539,1.87539,0,0,0,1.3003,1.48926,6.747,6.747,0,0,1,1.06592.44238,1.87323,1.87323,0,0,0,1.978-.13379A8.03232,8.03232,0,0,1,38.165,21.90137a1.876,1.876,0,0,0-.13379,1.97851,6.79929,6.79929,0,0,1,.44238,1.064,1.87487,1.87487,0,0,0,1.48926,1.30176C39.98779,26.499,40,26.751,40,27s-.01221.501-.03711.75439a1.87471,1.87471,0,0,0-1.48926,1.3003,6.747,6.747,0,0,1-.44238,1.06592,1.8752,1.8752,0,0,0,.13379,1.978A8.03232,8.03232,0,0,1,37.09863,33.165a1.878,1.878,0,0,0-1.97851-.13379,6.73645,6.73645,0,0,1-1.06494.44238,1.87518,1.87518,0,0,0-1.30079,1.48926,7.63568,7.63568,0,0,1-1.50878,0,1.87539,1.87539,0,0,0-1.3003-1.48926,6.747,6.747,0,0,1-1.06592-.44238,1.87418,1.87418,0,0,0-1.978.13379A8.03232,8.03232,0,0,1,25.835,32.09863a1.876,1.876,0,0,0,.13379-1.97851,6.75008,6.75008,0,0,1-.44238-1.06446,1.87508,1.87508,0,0,0-1.48926-1.30127C24.01221,27.501,24,27.249,24,27s.01221-.501.03711-.75439A1.87465,1.87465,0,0,0,25.52588,24.94482Z" id="id_102" style="fill: rgb(13, 112, 183);"></path><path d="M32,9a4,4,0,1,0-4-4A4.00458,4.00458,0,0,0,32,9Zm0-6a2,2,0,1,1-2,2A2.002,2.002,0,0,1,32,3Z" id="id_103" style="fill: rgb(14, 108, 184);"></path><path d="M10,30.7915a4,4,0,1,0-4-4A4.00458,4.00458,0,0,0,10,30.7915Zm0-6a2,2,0,1,1-2,2A2.002,2.002,0,0,1,10,24.7915Z" id="id_104" style="fill: rgb(18, 109, 184);"></path><path d="M50,26.7915a4,4,0,1,0,4-4A4.00458,4.00458,0,0,0,50,26.7915Zm6,0a2,2,0,1,1-2-2A2.002,2.002,0,0,1,56,26.7915Z" id="id_105" style="fill: rgb(20, 107, 179);"></path><path d="M52.20947,21.272l1.92481-.54394A22.91757,22.91757,0,0,0,38.875,5.04541l-.59668,1.90918A20.92185,20.92185,0,0,1,52.20947,21.272Z" id="id_106" style="fill: rgb(11, 104, 181);"></path><path d="M26.272,6.79053,25.728,4.86572A23.13545,23.13545,0,0,0,9.86572,20.728l1.92481.54394A21.12113,21.12113,0,0,1,26.272,6.79053Z" id="id_107" style="fill: rgb(13, 112, 183);"></path><path d="M48.228,40.15771,49.773,41.42822a22.81379,22.81379,0,0,0,4.36133-8.32812l-1.92481-.54395A20.81939,20.81939,0,0,1,48.228,40.15771Z" id="id_108" style="fill: rgb(15, 109, 186);"></path><path d="M11.9624,32.55615l-1.9248.54395a22.80657,22.80657,0,0,0,4.542,8.54492l1.5293-1.28906A20.80977,20.80977,0,0,1,11.9624,32.55615Z" id="id_109" style="fill: rgb(13, 111, 191);"></path><path d="M46.3255,50.21729a4,4,0,1,0-6.651,0,4.19386,4.19386,0,0,0-.93231.41052,3.99938,3.99938,0,0,0-2.85584-2.52112A4.94972,4.94972,0,0,0,37,45a5,5,0,0,0-10,0,4.94972,4.94972,0,0,0,1.11365,3.10669,3.99938,3.99938,0,0,0-2.85584,2.52112,4.19386,4.19386,0,0,0-.93231-.41052,4,4,0,1,0-6.651,0A3.62142,3.62142,0,0,0,15,53.57227V61a1,1,0,0,0,1,1h9a1,1,0,0,0,1,1H38a1,1,0,0,0,1-1h9a1,1,0,0,0,1-1V53.57227A3.62142,3.62142,0,0,0,46.3255,50.21729ZM21,46a2,2,0,1,1-2,2A2.002,2.002,0,0,1,21,46Zm4,14H17V53.57227A1.82706,1.82706,0,0,1,19,52h4a1.82706,1.82706,0,0,1,2,1.57227Zm7-18a2.9833,2.9833,0,0,1,2.19214.96661,8.51491,8.51491,0,0,0-4.38428,0A2.9833,2.9833,0,0,1,32,42Zm2.96027,3.39337a2.98426,2.98426,0,0,1-5.92054,0A6.54629,6.54629,0,0,1,34.96027,45.39337ZM32.877,55.709l-.877.877-.877-.877L32,52.64014ZM37,61H27V52a2.002,2.002,0,0,1,2-2h1.67432l-1.63575,5.7251a.99913.99913,0,0,0,.2544.98193l2,2a.99963.99963,0,0,0,1.41406,0l2-2a.99913.99913,0,0,0,.2544-.98193L33.32568,50H35a2.002,2.002,0,0,1,2,2Zm6-15a2,2,0,1,1-2,2A2.002,2.002,0,0,1,43,46Zm4,14H39V53.57227A1.82706,1.82706,0,0,1,41,52h4a1.82706,1.82706,0,0,1,2,1.57227Z" id="id_110" style="fill: rgb(18, 111, 186);"></path></svg>